<svg id="visual" viewBox="0 0 900 600" width="900" height="600" xmlns="http://www.w3.org/2000/svg" xmlns:xlink="http://www.w3.org/1999/xlink" version="1.1"><rect x="0" y="0" width="900" height="600" fill="#f7c5ed"></rect><defs><linearGradient id="grad1_0" x1="33.3%" y1="0%" x2="100%" y2="100%"><stop offset="20%" stop-color="#8f7ff9" stop-opacity="1"></stop><stop offset="80%" stop-color="#8f7ff9" stop-opacity="1"></stop></linearGradient></defs><defs><linearGradient id="grad1_1" x1="33.3%" y1="0%" x2="100%" y2="100%"><stop offset="20%" stop-color="#8f7ff9" stop-opacity="1"></stop><stop offset="80%" stop-color="#b78cf3" stop-opacity="1"></stop></linearGradient></defs><defs><linearGradient id="grad1_2" x1="33.3%" y1="0%" x2="100%" y2="100%"><stop offset="20%" stop-color="#d49def" stop-opacity="1"></stop><stop offset="80%" stop-color="#b78cf3" stop-opacity="1"></stop></linearGradient></defs><defs><linearGradient id="grad1_3" x1="33.3%" y1="0%" x2="100%" y2="100%"><stop offset="20%" stop-color="#d49def" stop-opacity="1"></stop><stop offset="80%" stop-color="#e9b0ec" stop-opacity="1"></stop></linearGradient></defs><defs><linearGradient id="grad1_4" x1="33.3%" y1="0%" x2="100%" y2="100%"><stop offset="20%" stop-color="#f7c5ed" stop-opacity="1"></stop><stop offset="80%" stop-color="#e9b0ec" stop-opacity="1"></stop></linearGradient></defs><defs><linearGradient id="grad2_0" x1="0%" y1="0%" x2="66.7%" y2="100%"><stop offset="20%" stop-color="#8f7ff9" stop-opacity="1"></stop><stop offset="80%" stop-color="#8f7ff9" stop-opacity="1"></stop></linearGradient></defs><defs><linearGradient id="grad2_1" x1="0%" y1="0%" x2="66.7%" y2="100%"><stop offset="20%" stop-color="#b78cf3" stop-opacity="1"></stop><stop offset="80%" stop-color="#8f7ff9" stop-opacity="1"></stop></linearGradient></defs><defs><linearGradient id="grad2_2" x1="0%" y1="0%" x2="66.7%" y2="100%"><stop offset="20%" stop-color="#b78cf3" stop-opacity="1"></stop><stop offset="80%" stop-color="#d49def" stop-opacity="1"></stop></linearGradient></defs><defs><linearGradient id="grad2_3" x1="0%" y1="0%" x2="66.7%" y2="100%"><stop offset="20%" stop-color="#e9b0ec" stop-opacity="1"></stop><stop offset="80%" stop-color="#d49def" stop-opacity="1"></stop></linearGradient></defs><defs><linearGradient id="grad2_4" x1="0%" y1="0%" x2="66.7%" y2="100%"><stop offset="20%" stop-color="#e9b0ec" stop-opacity="1"></stop><stop offset="80%" stop-color="#f7c5ed" stop-opacity="1"></stop></linearGradient></defs><g transform="translate(900, 0)"><path d="M0 351.5C-49.3 351.4 -98.7 351.2 -134.5 324.8C-170.4 298.4 -192.8 245.7 -203.6 203.6C-214.5 161.6 -213.8 130.1 -236.5 98C-259.2 65.8 -305.4 32.9 -351.5 0L0 0Z" fill="#f0baec"></path><path d="M0 281.2C-39.5 281.1 -78.9 281 -107.6 259.8C-136.3 238.7 -154.2 196.6 -162.9 162.9C-171.6 129.3 -171 104.1 -189.2 78.4C-207.4 52.6 -244.3 26.3 -281.2 0L0 0Z" fill="#dfa6ed"></path><path d="M0 210.9C-29.6 210.8 -59.2 210.7 -80.7 194.9C-102.2 179 -115.7 147.4 -122.2 122.2C-128.7 97 -128.3 78.1 -141.9 58.8C-155.5 39.5 -183.2 19.7 -210.9 0L0 0Z" fill="#c694f1"></path><path d="M0 140.6C-19.7 140.5 -39.5 140.5 -53.8 129.9C-68.2 119.3 -77.1 98.3 -81.5 81.5C-85.8 64.6 -85.5 52.1 -94.6 39.2C-103.7 26.3 -122.2 13.2 -140.6 0L0 0Z" fill="#a585f6"></path><path d="M0 70.3C-9.9 70.3 -19.7 70.2 -26.9 65C-34.1 59.7 -38.6 49.1 -40.7 40.7C-42.9 32.3 -42.8 26 -47.3 19.6C-51.8 13.2 -61.1 6.6 -70.3 0L0 0Z" fill="#8f7ff9"></path></g><g transform="translate(0, 600)"><path d="M0 -351.5C38.6 -329 77.3 -306.5 121.3 -292.9C165.3 -279.2 214.8 -274.5 248.6 -248.6C282.4 -222.6 300.5 -175.5 315 -130.5C329.6 -85.5 340.6 -42.8 351.5 0L0 0Z" fill="#f0baec"></path><path d="M0 -281.2C30.9 -263.2 61.8 -245.2 97 -234.3C132.3 -223.4 171.8 -219.6 198.9 -198.9C225.9 -178.1 240.4 -140.4 252 -104.4C263.7 -68.4 272.5 -34.2 281.2 0L0 0Z" fill="#dfa6ed"></path><path d="M0 -210.9C23.2 -197.4 46.4 -183.9 72.8 -175.7C99.2 -167.5 128.9 -164.7 149.1 -149.1C169.4 -133.6 180.3 -105.3 189 -78.3C197.8 -51.3 204.3 -25.7 210.9 0L0 0Z" fill="#c694f1"></path><path d="M0 -140.6C15.5 -131.6 30.9 -122.6 48.5 -117.1C66.1 -111.7 85.9 -109.8 99.4 -99.4C112.9 -89.1 120.2 -70.2 126 -52.2C131.8 -34.2 136.2 -17.1 140.6 0L0 0Z" fill="#a585f6"></path><path d="M0 -70.3C7.7 -65.8 15.5 -61.3 24.3 -58.6C33.1 -55.8 43 -54.9 49.7 -49.7C56.5 -44.5 60.1 -35.1 63 -26.1C65.9 -17.1 68.1 -8.6 70.3 0L0 0Z" fill="#8f7ff9"></path></g></svg>